<svg xmlns="http://www.w3.org/2000/svg" width="50" height="50" viewBox="0 0 50 50"><path fill="#fff" d="M43.5 42c0 1.65-1.35 3-3 3h-30c-1.65 0-3-1.35-3-3v-31c0-1.65 1.35-3 3-3h30c1.65 0 3 1.35 3 3v31z"/><path d="M40.5 46h-30c-2.206 0-4-1.794-4-4v-31c0-2.206 1.794-4 4-4h30c2.206 0 4 1.794 4 4v31c0 2.206-1.794 4-4 4zm-30-37c-1.103 0-2 .897-2 2v31c0 1.103.897 2 2 2h30c1.103 0 2-.897 2-2v-31c0-1.103-.897-2-2-2h-30zM7.5 14h36v2h-36zM14.5 4h2v7h-2zM35.5 4h2v7h-2zM25 38.25c-1.103 0-2-.897-2-2s.897-2 2-2 2 .897 2 2-.897 2-2 2zm0-3c-.552 0-1 .448-1 1s.448 1 1 1 1-.448 1-1-.448-1-1-1z"/><circle cx="19" cy="36.25" r="1.5"/><circle cx="13" cy="36.25" r="1.5"/><circle cx="37" cy="29.25" r="1.5"/><circle cx="31" cy="29.25" r="1.5"/><circle cx="25" cy="29.25" r="1.5"/><circle cx="19" cy="29.25" r="1.5"/><circle cx="13" cy="29.25" r="1.5"/><circle cx="37" cy="22.25" r="1.5"/><circle cx="31" cy="22.25" r="1.5"/><circle cx="25" cy="22.25" r="1.5"/><circle cx="19" cy="22.25" r="1.5"/></svg>