<svg xmlns="http://www.w3.org/2000/svg" width="50" height="50" viewBox="0 0 50 50"><path fill="#fff" d="M43 41c0 1.65-1.35 3-3 3h-30c-1.65 0-3-1.35-3-3v-31c0-1.65 1.35-3 3-3h30c1.65 0 3 1.35 3 3v31z"/><path d="M7 13h36v2h-36zM14 3h2v7h-2zM35 3h2v7h-2z"/><path d="M40 8h-30c-1.103 0-2 .897-2 2v31c0 1.103.897 2 2 2h9v-22h23v-11c0-1.103-.897-2-2-2z" fill="none"/><path d="M10 43c-1.103 0-2-.897-2-2v-31c0-1.103.897-2 2-2h30c1.103 0 2 .897 2 2v11h2v-11c0-2.206-1.794-4-4-4h-30c-2.206 0-4 1.794-4 4v31c0 2.206 1.794 4 4 4h9v-2h-9z"/><circle fill="#fff" cx="34.167" cy="34.584" r="10.833"/><path d="M34.168 46.417c-6.525 0-11.834-5.309-11.834-11.833 0-6.525 5.309-11.834 11.834-11.834 6.524 0 11.833 5.309 11.833 11.834 0 6.524-5.309 11.833-11.833 11.833zm0-21.667c-5.423 0-9.834 4.411-9.834 9.834 0 5.422 4.411 9.833 9.834 9.833 5.422 0 9.833-4.411 9.833-9.833 0-5.423-4.411-9.834-9.833-9.834zM33 27h2v8h-2zM34.879 33.464l5.656 5.656-1.414 1.414-5.656-5.656z"/></svg>