<svg xmlns="http://www.w3.org/2000/svg" width="460" height="265" viewBox="0 0 460 265"><path fill="#58595B" d="M38.425 214.84c-.741-.901-1.65-1.594-2.729-2.076-1.078-.483-2.326-.725-3.742-.725-1.417 0-2.729.273-3.936.82-1.207.548-2.253 1.312-3.139 2.294-.886.982-1.577 2.149-2.076 3.501-.499 1.353-.748 2.817-.748 4.395 0 1.61.249 3.083.748 4.418.499 1.336 1.183 2.495 2.053 3.477.869.982 1.891 1.747 3.065 2.294 1.175.548 2.438.821 3.791.821 1.545 0 2.913-.321 4.104-.966 1.19-.644 2.173-1.546 2.945-2.704l6.277 4.684c-1.448 2.028-3.283 3.525-5.505 4.491-2.221.966-4.507 1.448-6.856 1.448-2.673 0-5.135-.419-7.388-1.256-2.254-.836-4.201-2.035-5.844-3.597-1.642-1.562-2.921-3.453-3.839-5.674-.917-2.222-1.376-4.7-1.376-7.437s.459-5.216 1.376-7.437c.918-2.222 2.197-4.112 3.839-5.674 1.643-1.562 3.59-2.76 5.844-3.598 2.253-.837 4.715-1.255 7.388-1.255.966 0 1.972.089 3.018.265 1.046.178 2.077.459 3.091.846 1.014.386 1.987.901 2.922 1.545.933.645 1.77 1.433 2.511 2.366l-5.794 4.734zM77.973 226.96c0 2.028-.307 3.896-.917 5.602-.612 1.706-1.521 3.187-2.729 4.442s-2.713 2.238-4.516 2.945c-1.803.708-3.879 1.062-6.229 1.062-2.383 0-4.476-.354-6.277-1.062-1.804-.707-3.308-1.689-4.516-2.945-1.207-1.256-2.117-2.736-2.728-4.442-.612-1.706-.918-3.573-.918-5.602v-21.005h7.533v20.715c0 1.062.169 2.045.507 2.946s.812 1.682 1.425 2.342c.611.66 1.344 1.175 2.197 1.545.853.37 1.778.556 2.776.556.997 0 1.915-.186 2.752-.556s1.562-.885 2.173-1.545 1.087-1.44 1.425-2.342.507-1.884.507-2.946v-20.715h7.533v21.005zM85.216 205.956h7.533v27.234h13.955v6.953h-21.488v-34.187zM113.028 212.619h-9.754v-6.663h27.041v6.663h-9.754v27.524h-7.533v-27.524zM162.958 226.96c0 2.028-.307 3.896-.917 5.602-.612 1.706-1.521 3.187-2.729 4.442s-2.713 2.238-4.516 2.945c-1.803.708-3.879 1.062-6.229 1.062-2.383 0-4.476-.354-6.277-1.062-1.804-.707-3.308-1.689-4.516-2.945-1.207-1.256-2.117-2.736-2.728-4.442-.612-1.706-.918-3.573-.918-5.602v-21.005h7.533v20.715c0 1.062.169 2.045.507 2.946s.812 1.682 1.425 2.342c.611.66 1.344 1.175 2.197 1.545.853.37 1.778.556 2.776.556.997 0 1.915-.186 2.752-.556s1.562-.885 2.173-1.545 1.087-1.44 1.425-2.342.507-1.884.507-2.946v-20.715h7.533v21.005zM198.739 226.96c0 2.028-.307 3.896-.917 5.602-.612 1.706-1.521 3.187-2.729 4.442s-2.713 2.238-4.516 2.945c-1.803.708-3.879 1.062-6.229 1.062-2.383 0-4.476-.354-6.277-1.062-1.804-.707-3.308-1.689-4.516-2.945-1.207-1.256-2.117-2.736-2.728-4.442-.612-1.706-.918-3.573-.918-5.602v-21.005h7.533v20.715c0 1.062.169 2.045.507 2.946s.812 1.682 1.425 2.342c.611.66 1.344 1.175 2.197 1.545.853.37 1.778.556 2.776.556.997 0 1.915-.186 2.752-.556s1.562-.885 2.173-1.545 1.087-1.44 1.425-2.342.507-1.884.507-2.946v-20.715h7.533v21.005zM205.692 205.956h13.231c1.738 0 3.388.169 4.949.507 1.561.338 2.929.901 4.104 1.689 1.175.79 2.108 1.852 2.801 3.188.691 1.336 1.038 3.002 1.038 4.998 0 2.414-.628 4.466-1.883 6.156-1.256 1.69-3.091 2.761-5.505 3.211l8.691 14.438h-9.03l-7.146-13.665h-3.718v13.665h-7.533v-34.187zm7.534 14.148h4.442c.676 0 1.392-.024 2.148-.073.757-.048 1.44-.192 2.053-.435.611-.241 1.118-.619 1.521-1.135.402-.515.604-1.238.604-2.173 0-.869-.178-1.561-.531-2.076-.354-.515-.806-.909-1.353-1.183-.548-.273-1.176-.459-1.883-.556-.709-.097-1.4-.145-2.076-.145h-4.926v7.776z"/><path fill="#F6921E" d="M237.272 205.956h7.533v14.196l13.279-14.196h9.851l-15.211 15.887 16.515 18.301h-10.527l-13.906-16.225v16.225h-7.533v-34.188zM300.674 226.96c0 2.028-.307 3.896-.917 5.602-.612 1.706-1.521 3.187-2.729 4.442s-2.713 2.238-4.516 2.945c-1.803.708-3.879 1.062-6.229 1.062-2.383 0-4.476-.354-6.277-1.062-1.804-.707-3.308-1.689-4.516-2.945-1.207-1.256-2.117-2.736-2.728-4.442-.612-1.706-.918-3.573-.918-5.602v-21.005h7.533v20.715c0 1.062.169 2.045.507 2.946s.812 1.682 1.425 2.342c.611.66 1.344 1.175 2.197 1.545.853.37 1.778.556 2.776.556.997 0 1.915-.186 2.752-.556s1.562-.885 2.173-1.545 1.087-1.44 1.425-2.342.507-1.884.507-2.946v-20.715h7.533v21.005zM336.455 226.96c0 2.028-.307 3.896-.917 5.602-.612 1.706-1.521 3.187-2.729 4.442s-2.713 2.238-4.516 2.945c-1.803.708-3.879 1.062-6.229 1.062-2.383 0-4.476-.354-6.277-1.062-1.804-.707-3.308-1.689-4.516-2.945-1.207-1.256-2.117-2.736-2.728-4.442-.612-1.706-.918-3.573-.918-5.602v-21.005h7.533v20.715c0 1.062.169 2.045.507 2.946s.812 1.682 1.425 2.342c.611.66 1.344 1.175 2.197 1.545.853.37 1.778.556 2.776.556.997 0 1.915-.186 2.752-.556s1.562-.885 2.173-1.545 1.087-1.44 1.425-2.342.507-1.884.507-2.946v-20.715h7.533v21.005zM343.408 205.956h13.231c1.738 0 3.388.169 4.949.507 1.561.338 2.929.901 4.104 1.689 1.175.79 2.108 1.852 2.801 3.188.691 1.336 1.038 3.002 1.038 4.998 0 2.414-.628 4.466-1.883 6.156-1.256 1.69-3.091 2.761-5.505 3.211l8.691 14.438h-9.03l-7.146-13.665h-3.718v13.665h-7.533v-34.187zm7.533 14.148h4.442c.676 0 1.392-.024 2.148-.073.757-.048 1.44-.192 2.053-.435.611-.241 1.118-.619 1.521-1.135.402-.515.604-1.238.604-2.173 0-.869-.178-1.561-.531-2.076-.354-.515-.806-.909-1.353-1.183-.548-.273-1.176-.459-1.883-.556-.709-.097-1.4-.145-2.076-.145h-4.926v7.776z"/><path fill="#58595B" d="M373.926 235.991c0-.611.112-1.191.338-1.739.225-.547.539-1.021.941-1.424s.877-.716 1.425-.941c.547-.226 1.127-.339 1.738-.339s1.19.113 1.738.339c.547.226 1.021.539 1.425.941.402.402.716.877.941 1.424.225.548.338 1.128.338 1.739s-.113 1.191-.338 1.738c-.226.548-.539 1.022-.941 1.424-.403.403-.878.717-1.425.942-.548.225-1.127.338-1.738.338s-1.191-.113-1.738-.338c-.548-.226-1.022-.539-1.425-.942-.402-.401-.717-.876-.941-1.424-.226-.547-.338-1.127-.338-1.738zM388.991 205.956h12.748c1.48 0 2.97.104 4.467.313 1.497.21 2.841.628 4.032 1.256 1.19.627 2.156 1.505 2.897 2.631.74 1.128 1.11 2.625 1.11 4.491 0 1.932-.539 3.533-1.618 4.805-1.078 1.272-2.503 2.182-4.273 2.729v.097c1.127.161 2.149.475 3.066.941.918.467 1.706 1.062 2.366 1.786.659.725 1.167 1.569 1.521 2.535.354.966.531 1.997.531 3.091 0 1.803-.387 3.308-1.159 4.515s-1.771 2.182-2.994 2.922-2.6 1.271-4.128 1.594c-1.53.321-3.051.482-4.563.482h-14.004v-34.188zm7.533 13.665h5.456c.58 0 1.151-.064 1.715-.193.562-.128 1.069-.338 1.521-.628.451-.289.812-.676 1.087-1.158.273-.483.41-1.062.41-1.738 0-.708-.153-1.296-.459-1.763s-.7-.829-1.183-1.087c-.482-.257-1.03-.441-1.642-.555-.612-.113-1.207-.169-1.787-.169h-5.118v7.291zm0 14.148h6.76c.58 0 1.167-.064 1.763-.193.596-.128 1.135-.354 1.618-.676.482-.321.877-.74 1.183-1.256.306-.515.459-1.142.459-1.883 0-.805-.201-1.456-.604-1.956-.403-.498-.91-.876-1.521-1.135-.611-.257-1.271-.435-1.979-.531-.709-.097-1.369-.145-1.979-.145h-5.698v7.775zM420.571 205.956h23.227v6.953h-15.693v6.374h14.824v6.953h-14.824v6.954h16.562v6.953h-24.096v-34.187z"/><g fill="#F6921E"><path d="M172.946 90.066c0 5.73-4.646 10.373-10.378 10.373-5.727 0-10.368-4.643-10.368-10.373 0-5.728 4.642-10.371 10.368-10.371 5.732 0 10.378 4.643 10.378 10.371zM268.345 120.92c21.706 23.191 39.561 42.188 44.311 47.891l16.109-15.143c-4.756-5.709-23.212-25.345-45.403-49.058 22.189-23.715 40.647-43.35 47.563-50.473l-14.771-13.887-62.002 65.132 14.193 15.538zM184.019 146.894c-26.547 0-48.143-18.97-48.143-42.283 0-23.314 21.596-42.281 48.143-42.285 18.104 0 36.839 8.641 51.771 23.791l15.231-16.037c-19.003-19.021-43.215-29.859-67.002-29.859-18.643 0-36.172 6.559-49.354 18.473-13.477 12.173-20.899 28.48-20.899 45.918s7.423 33.743 20.899 45.92c13.183 11.91 30.712 18.47 49.354 18.47 23.344 0 47.1-10.434 65.935-28.8l-14.92-16.335c-14.808 14.674-33.217 23.027-51.015 23.027z"/></g></svg>