<svg width="177" height="111" viewBox="0 0 177 111" fill="none" xmlns="http://www.w3.org/2000/svg">
<path d="M153.7 2.8999H23.8C12.5 2.8999 3.40002 11.9999 3.40002 23.2999V107.9H153.7V2.8999Z" stroke="#009FDF" stroke-width="5" stroke-miterlimit="10" stroke-linecap="round" stroke-linejoin="round"/>
<path d="M153.7 2.8999C165 2.8999 174.1 11.9999 174.1 23.2999H153.7V2.8999Z" stroke="#009FDF" stroke-width="5" stroke-miterlimit="10" stroke-linecap="round" stroke-linejoin="round"/>
<path d="M3.40002 40.7998L78.5 81.0997" stroke="#009FDF" stroke-width="5" stroke-miterlimit="10" stroke-linecap="round" stroke-linejoin="round"/>
<path d="M153.7 40.7998L78.5 81.0997" stroke="#009FDF" stroke-width="5" stroke-miterlimit="10" stroke-linecap="round" stroke-linejoin="round"/>
<path d="M113.8 75.2998H140.8" stroke="#009FDF" stroke-width="5" stroke-miterlimit="10" stroke-linecap="round" stroke-linejoin="round"/>
<path d="M113.8 85.2998H140.8" stroke="#009FDF" stroke-width="5" stroke-miterlimit="10" stroke-linecap="round" stroke-linejoin="round"/>
<path d="M113.8 95.2998H140.8" stroke="#009FDF" stroke-width="5" stroke-miterlimit="10" stroke-linecap="round" stroke-linejoin="round"/>
<path d="M51.5 51.7998C54.7 51.3998 57.8 50.8998 61 50.4998C72 49.0998 83 47.6998 94 46.2998C94.2 46.2998 94.4 46.1997 94.6 46.0997C94.6 38.6997 94.6 31.2998 94.6 23.7998C92.3 23.4998 90 23.1998 87.7 22.8998C77.6 21.5998 67.5 20.3997 57.3 19.0997C55.2 18.7997 53.1 18.4997 51.1 18.1997C69.3 18.1997 87.5 18.1997 105.7 18.1997C105.7 29.3997 105.7 40.4997 105.7 51.6997C87.7 51.7997 69.6 51.7998 51.5 51.7998Z" fill="#009FDF"/>
<path d="M54.9 24.1997C56.7 24.2997 58.4 24.4997 60.3 24.5997C60.3 25.0997 60.3 25.5998 60.3 25.9998C60.3 29.6998 60.3 33.4997 60.3 37.1997C60.3 39.8997 60.8 40.7998 62.5 40.7998C64.4 40.7998 65.1 39.7997 65.1 37.1997C65.1 33.5997 65.1 29.9998 65.1 26.3998C65.1 25.9998 65.1 25.5998 65.1 24.9998C66.6 25.0998 67.9 25.1998 69.4 25.2998C69.4 26.1998 69.4 27.0998 69.4 27.8998C69.4 31.1998 69.4 34.3997 69.4 37.6997C69.3 43.9997 63.3 47.5998 57.6 44.8998C55.9 44.0998 54.9 42.6998 54.9 40.9998C54.8 35.3998 54.9 29.8997 54.9 24.1997Z" fill="#009FDF"/>
<path d="M81.6 30.5C80.3 30.4 79.1 30.4 77.9 30.3C77.9 28.8 77.9 27.5 77.9 26C82.1 26.4 86.2 26.7 90.4 27.1C90.4 28.4 90.4 29.5 90.4 30.7C89.3 30.7 88.1 30.7 86.8 30.7C86.8 34.9 86.8 39 86.8 43.2C85 43.3 83.4 43.5 81.6 43.6C81.6 39.3 81.6 34.9 81.6 30.5Z" fill="#009FDF"/>
<path d="M71.3 44.3999C71.3 39.9999 71.3 35.7999 71.3 31.5999C73 31.5999 74.6 31.5999 76.3 31.5999C76.3 35.7999 76.3 39.7999 76.3 43.9999C74.7 44.1999 73.1 44.2999 71.3 44.3999Z" fill="#009FDF"/>
<path d="M76.4 30.1998C74.6 30.0998 73 29.9999 71.4 29.9999C71.4 28.4999 71.4 27.0999 71.4 25.5999C72.9 25.6999 74.4 25.7999 75.8 25.8999C76 25.8999 76.4 26.2999 76.4 26.4999C76.4 27.6999 76.4 28.8998 76.4 30.1998Z" fill="#009FDF"/>
</svg>
