<svg xmlns="http://www.w3.org/2000/svg" width="210" height="40" viewBox="0 0 210 40"><path d="M23.053 23.272c0 2.701-.289 4.879-2.364 6.82-1.858 1.738-4.125 2.344-6.396 2.541-1.978.172-4.566-.129-6.236-1.299-2.297-1.652-2.737-4.103-2.737-7.218v-17.215l6.739.562v15.602c0 .832-.032 1.965.408 2.715.507.777 1.513 1.057 2.369 1.016.754-.037 1.698-.326 2.264-.912.851-.846.754-2.102.754-3.227v-14.717l5.2.434v14.898zm8.286-9.077l-6.241-.278v-5.374l6.241.521v5.131zm0 16.548l-6.241.512v-15.569l6.241.195v14.862zm12.438-.926l-6.294.525v-15.771l-4.537-.197v-5.177l15.274 1.271v4.564l-4.443-.19v14.975zm-43.777-29.817h66.659v40h-66.659l53.326-6.666v-26.666l-53.326-6.668z" fill="#eee"/><g fill="#eee"><path d="M89.13 30.336h-5.326v-1.924c-.788 1.482-2.088 2.223-3.901 2.223-1.671 0-3.026-.652-4.065-1.957-1.039-1.307-1.559-3.203-1.559-5.689 0-2.326.522-4.173 1.566-5.54s2.425-2.05 4.144-2.05c1.434 0 2.615.546 3.546 1.638v-6.137h5.596v19.436zm-5.596-9.313c0-1.3-.537-1.95-1.609-1.95-.75 0-1.241.413-1.474 1.238-.233.827-.349 1.836-.349 3.033 0 2.346.598 3.518 1.794 3.518.456 0 .842-.186 1.161-.557.317-.369.477-.934.477-1.693v-3.589zM106.716 30.336h-5.411c-.133-.617-.2-1.291-.2-2.021-1.025 1.547-2.577 2.32-4.656 2.32-1.709 0-2.988-.436-3.838-1.309-.85-.875-1.274-1.877-1.274-3.006 0-1.529.695-2.766 2.086-3.711 1.391-.943 3.857-1.51 7.398-1.701v-.328c0-.636-.145-1.058-.435-1.267s-.715-.313-1.274-.313c-1.31 0-2.041.527-2.193 1.581l-5.184-.484c.741-3.028 3.261-4.542 7.562-4.542 1.168 0 2.24.117 3.218.349.978.233 1.751.596 2.321 1.089.569.494.952 1.016 1.146 1.566.195.551.292 1.609.292 3.175v5.781c0 1.103.147 2.042.442 2.821zm-5.895-6.779c-2.421.258-3.631 1.031-3.631 2.322 0 .873.479 1.309 1.438 1.309.607 0 1.125-.18 1.552-.541.427-.359.641-1.158.641-2.393v-.697zM118.165 15.854v3.688h-2.892v5.341c0 .73.138 1.164.413 1.301.276.139.561.207.854.207.457 0 .998-.08 1.624-.242v4.045c-1.12.219-2.223.326-3.305.326-1.746 0-3.03-.373-3.852-1.123-.82-.75-1.231-1.947-1.231-3.59l.015-1.693v-4.572h-2.165v-3.688h2.165l.085-4.713 5.396-.085v4.799h2.893zM134.882 30.336h-5.41c-.133-.617-.2-1.291-.2-2.021-1.024 1.547-2.577 2.32-4.655 2.32-1.709 0-2.988-.436-3.838-1.309-.85-.875-1.274-1.877-1.274-3.006 0-1.529.695-2.766 2.086-3.711 1.391-.943 3.856-1.51 7.397-1.701v-.328c0-.636-.146-1.058-.435-1.267-.29-.209-.715-.313-1.273-.313-1.312 0-2.043.527-2.193 1.581l-5.185-.484c.74-3.028 3.261-4.542 7.562-4.542 1.169 0 2.241.117 3.22.349.978.233 1.75.596 2.32 1.089.569.494.952 1.016 1.146 1.566.196.551.293 1.609.293 3.175v5.781c-.002 1.103.144 2.042.439 2.821zm-5.895-6.779c-2.422.258-3.631 1.031-3.631 2.322 0 .873.479 1.309 1.438 1.309.606 0 1.124-.18 1.551-.541.429-.359.642-1.158.642-2.393v-.697zM140.622 30.336h-3.206v-19.437h5.598v6.678c.778-1.348 2.017-2.022 3.716-2.022 1.196 0 2.212.313 3.048.94.835.626 1.457 1.521 1.864 2.684.409 1.163.612 2.386.612 3.667 0 2.336-.521 4.219-1.566 5.646-1.043 1.428-2.602 2.143-4.669 2.143-2.043 0-3.594-.764-4.658-2.293-.302.571-.549 1.235-.739 1.994zm2.392-5.398c0 1.426.549 2.139 1.651 2.139.599 0 1.057-.26 1.375-.777.317-.518.476-1.582.476-3.197 0-1.756-.18-2.859-.541-3.311-.361-.451-.806-.676-1.339-.676-.417 0-.792.161-1.124.484s-.498.793-.498 1.41v3.928zM169.115 30.336h-5.413c-.132-.617-.199-1.291-.199-2.021-1.025 1.547-2.575 2.32-4.655 2.32-1.709 0-2.989-.436-3.838-1.309-.85-.875-1.274-1.877-1.274-3.006 0-1.529.695-2.766 2.086-3.711 1.391-.943 3.857-1.51 7.397-1.701v-.328c0-.636-.145-1.058-.435-1.267-.288-.209-.713-.313-1.274-.313-1.31 0-2.04.527-2.192 1.581l-5.183-.484c.74-3.028 3.261-4.542 7.561-4.542 1.168 0 2.24.117 3.218.349.979.233 1.752.596 2.321 1.089.571.494.952 1.016 1.147 1.566.193.551.291 1.609.291 3.175v5.781c0 1.103.147 2.042.442 2.821zm-5.896-6.779c-2.42.258-3.631 1.031-3.631 2.322 0 .873.48 1.309 1.438 1.309.608 0 1.126-.18 1.553-.541.426-.359.64-1.158.64-2.393v-.697zM185.761 30.336h-5.682v-9.114c0-.75-.116-1.229-.35-1.438-.232-.208-.523-.313-.875-.313-1.035 0-1.552.721-1.552 2.164v8.701h-5.682v-14.482h5.269v2.05c.778-1.566 2.169-2.35 4.172-2.35 1.055 0 1.943.202 2.67.605.728.403 1.247.925 1.559 1.566.314.641.471 1.753.471 3.339v9.272zM203.718 15.854l-4.378 4.975 4.875 9.507h-5.872l-2.718-5.799-1.549 1.811v3.988h-5.325v-19.437h5.325v7.845c0 .219-.014 1.092-.041 2.62.341-.484.688-.925 1.038-1.324l3.637-4.186h5.008z"/></g></svg>